<svg width="1184" height="199" viewBox="0 0 1184 199" fill="none" xmlns="http://www.w3.org/2000/svg">
<g opacity="0.1">
<path d="M96.2941 71.3065H69.3662C67.8582 60.9761 62.2572 57.3174 49.5473 57.3174C38.9916 57.3174 32.9597 59.9 32.9597 66.1413C32.9597 72.3826 38.7761 74.9652 50.1936 78.1935C62.2572 81.637 73.6747 84.0043 81.8607 87.2326C93.0627 91.7522 99.31 99.0696 99.31 112.843C99.31 134.796 83.1533 147.924 52.994 147.924C20.4652 147.924 2.36965 132.643 1.93881 111.122H30.8055C30.8055 121.022 39.207 126.833 52.7786 126.833C62.6881 126.833 71.5204 123.82 71.5204 115.857C71.5204 108.324 63.5498 105.957 54.502 103.804C36.6219 99.5 26.7125 96.487 19.1726 91.7522C9.26319 85.5109 5.81642 77.3326 5.81642 67.863C5.81642 50 18.0955 36.4413 50.409 36.4413C80.999 36.4413 94.7861 48.4935 96.2941 71.3065Z" fill="black"/>
<path d="M135.863 145.126H107.858V39.2391H135.863V145.126ZM135.863 26.5413H107.858V0.5H135.863V26.5413Z" fill="black"/>
<path d="M264.768 145.126H236.117L219.314 83.5739L202.511 145.126H173.86L143.701 39.2391H173.214L190.447 107.248L205.096 39.2391H233.532L250.12 107.248L266.276 39.2391H295.143L264.768 145.126Z" fill="black"/>
<path d="M347.208 124.465C364.226 124.465 372.843 113.704 372.843 92.1826C372.843 70.6609 364.226 60.1152 347.208 60.1152C330.19 60.1152 321.573 70.6609 321.573 92.1826C321.573 113.704 330.19 124.465 347.208 124.465ZM347.208 147.924C312.956 147.924 292.706 125.111 292.706 92.1826C292.706 58.6087 313.602 36.4413 347.208 36.4413C380.383 36.4413 401.064 58.3935 401.064 92.1826C401.064 125.757 380.168 147.924 347.208 147.924Z" fill="black"/>
<path d="M507.281 145.126H479.06V80.9913C479.06 64.6348 474.321 60.1152 460.965 60.1152C446.316 60.1152 439.207 68.2935 439.207 84.4348V145.126H411.202V39.2391H437.914V54.7348C444.377 42.8978 455.148 36.4413 472.167 36.4413C492.417 36.4413 507.281 48.7087 507.281 71.737V145.126Z" fill="black"/>
<path d="M548.842 145.126H518.898V116.072H548.842V145.126Z" fill="black"/>
<path d="M623.922 104.88L624.138 93.2587C621.337 96.0565 616.382 97.563 606.042 99.5C590.101 102.513 584.931 107.033 584.931 116.072C584.931 124.035 589.67 127.909 598.502 127.909C612.935 127.909 623.707 117.363 623.922 104.88ZM652.142 145.126H626.076C625.215 142.543 624.568 138.885 624.353 135.657C617.675 142.974 606.473 147.924 592.255 147.924C568.128 147.924 556.926 136.087 556.926 118.87C556.926 88.3087 577.391 84.8652 605.611 80.9913C619.614 79.0543 623.491 76.2565 623.491 68.9391C623.491 62.0522 616.598 57.963 605.611 57.963C592.901 57.963 587.731 64.2043 586.438 73.6739H560.372C560.803 51.7217 572.867 36.4413 606.904 36.4413C640.51 36.4413 652.142 51.5065 652.142 78.1935V145.126Z" fill="black"/>
<path d="M692.497 145.126H664.492V39.2391H690.774V51.937C700.037 37.7326 710.808 36.4413 722.226 36.4413H725.888V65.0652C723.303 64.6348 720.718 64.4196 718.133 64.4196C700.899 64.4196 692.497 73.0283 692.497 90.0304V145.126Z" fill="black"/>
<path d="M794.396 106.817H822.616C819.6 131.352 799.566 147.924 773.931 147.924C745.064 147.924 725.245 128.77 725.245 90.8913C725.245 53.013 745.064 36.4413 774.792 36.4413C802.366 36.4413 821.108 52.1522 822.832 77.1174H794.611C793.103 66.1413 785.133 59.6848 774.577 59.6848C762.729 59.6848 753.035 67.2174 753.035 90.2457C753.035 113.274 762.729 124.465 773.715 124.465C784.702 124.465 793.319 118.224 794.396 106.817Z" fill="black"/>
<path d="M926.977 145.126H898.756V79.4848C898.756 63.5587 893.371 58.6087 880.661 58.6087C866.658 58.6087 858.903 70.2304 858.903 84.4348V145.126H830.898V0.5H858.903V53.013C862.996 43.5435 875.922 36.4413 890.139 36.4413C911.897 36.4413 926.977 49.1391 926.977 70.2304V145.126Z" fill="black"/>
<path d="M967.892 145.126H939.887V39.2391H967.892V145.126ZM967.892 26.5413H939.887V0.5H967.892V26.5413Z" fill="black"/>
<path d="M1042.94 145.126H1013.64L975.73 39.2391H1006.97L1029.15 109.185L1051.56 39.2391H1081.07L1042.94 145.126Z" fill="black"/>
<path d="M1107.74 81.8522H1151.04C1150.61 66.1413 1140.27 58.6087 1129.28 58.6087C1118.08 58.6087 1108.82 67.2174 1107.74 81.8522ZM1179.91 99.5H1106.88C1107.74 115.426 1116.79 125.757 1130.58 125.757C1139.62 125.757 1147.59 121.237 1149.53 113.92H1178.4C1171.94 135.657 1154.49 147.924 1131.87 147.924C1096.54 147.924 1078.87 128.554 1078.87 90.2457C1078.87 57.5326 1097.62 36.4413 1130.14 36.4413C1162.67 36.4413 1179.91 57.5326 1179.91 99.5Z" fill="black"/>
<path d="M0 175.902H1184V198.5H0V175.902Z" fill="black"/>
</g>
</svg>
